<mxfile host="app.diagrams.net" modified="2023-01-05T16:52:33.026Z" agent="5.0 (Windows NT 10.0; Win64; x64) AppleWebKit/537.36 (KHTML, like Gecko) Chrome/108.0.0.0 Safari/537.36 Edg/108.0.1462.54" etag="OJbszvtBIw-20xVOZMk1" version="20.8.1" type="github">
  <diagram id="CHrUsiTqgCRq1WLIEfKi" name="Page-1">
    <mxGraphModel dx="880" dy="444" grid="1" gridSize="10" guides="1" tooltips="1" connect="1" arrows="1" fold="1" page="1" pageScale="1" pageWidth="850" pageHeight="1100" math="0" shadow="0">
      <root>
        <mxCell id="0" />
        <mxCell id="1" parent="0" />
        <mxCell id="MruObNP_5KYlce9daRHS-1" value="" style="whiteSpace=wrap;html=1;aspect=fixed;" parent="1" vertex="1">
          <mxGeometry x="210" y="10" width="430" height="430" as="geometry" />
        </mxCell>
        <mxCell id="MruObNP_5KYlce9daRHS-2" value="Evaluator" style="shape=umlActor;verticalLabelPosition=bottom;verticalAlign=top;html=1;outlineConnect=0;" parent="1" vertex="1">
          <mxGeometry x="130" y="160" width="40" height="90" as="geometry" />
        </mxCell>
        <mxCell id="MruObNP_5KYlce9daRHS-6" value="Applicant" style="shape=umlActor;verticalLabelPosition=bottom;verticalAlign=top;html=1;outlineConnect=0;" parent="1" vertex="1">
          <mxGeometry x="680" y="160" width="40" height="90" as="geometry" />
        </mxCell>
        <mxCell id="MruObNP_5KYlce9daRHS-11" value="Access &lt;br&gt;Applicant Record Database" style="ellipse;whiteSpace=wrap;html=1;" parent="1" vertex="1">
          <mxGeometry x="325" y="220" width="105" height="70" as="geometry" />
        </mxCell>
        <mxCell id="MruObNP_5KYlce9daRHS-15" value="" style="endArrow=classic;html=1;rounded=0;exitX=1;exitY=0.3333333333333333;exitDx=0;exitDy=0;exitPerimeter=0;entryX=0;entryY=0.5;entryDx=0;entryDy=0;" parent="1" source="MruObNP_5KYlce9daRHS-2" target="MruObNP_5KYlce9daRHS-11" edge="1">
          <mxGeometry width="50" height="50" relative="1" as="geometry">
            <mxPoint x="460" y="210" as="sourcePoint" />
            <mxPoint x="510" y="160" as="targetPoint" />
          </mxGeometry>
        </mxCell>
        <mxCell id="MruObNP_5KYlce9daRHS-16" value="Login / Register to Portal" style="ellipse;whiteSpace=wrap;html=1;" parent="1" vertex="1">
          <mxGeometry x="352.5" y="20" width="120" height="70" as="geometry" />
        </mxCell>
        <mxCell id="MruObNP_5KYlce9daRHS-17" value="" style="endArrow=classic;html=1;rounded=0;entryX=1;entryY=0.5;entryDx=0;entryDy=0;exitX=0;exitY=0.3333333333333333;exitDx=0;exitDy=0;exitPerimeter=0;" parent="1" source="MruObNP_5KYlce9daRHS-6" target="MruObNP_5KYlce9daRHS-16" edge="1">
          <mxGeometry width="50" height="50" relative="1" as="geometry">
            <mxPoint x="460" y="210" as="sourcePoint" />
            <mxPoint x="510" y="160" as="targetPoint" />
          </mxGeometry>
        </mxCell>
        <mxCell id="MruObNP_5KYlce9daRHS-18" value="Upload Requied Documents and Add/Select&amp;nbsp; Subject&lt;br&gt;For Enrollment" style="ellipse;whiteSpace=wrap;html=1;" parent="1" vertex="1">
          <mxGeometry x="410" y="100" width="120" height="80" as="geometry" />
        </mxCell>
        <mxCell id="MruObNP_5KYlce9daRHS-19" value="" style="endArrow=classic;html=1;rounded=0;entryX=1;entryY=0.5;entryDx=0;entryDy=0;exitX=0;exitY=0.3333333333333333;exitDx=0;exitDy=0;exitPerimeter=0;" parent="1" source="MruObNP_5KYlce9daRHS-6" target="MruObNP_5KYlce9daRHS-18" edge="1">
          <mxGeometry width="50" height="50" relative="1" as="geometry">
            <mxPoint x="670" y="190" as="sourcePoint" />
            <mxPoint x="495" y="95" as="targetPoint" />
          </mxGeometry>
        </mxCell>
        <mxCell id="MruObNP_5KYlce9daRHS-20" value="Check Records for Documents if complete and Drop-out OR INC Subject" style="ellipse;whiteSpace=wrap;html=1;" parent="1" vertex="1">
          <mxGeometry x="220" y="310" width="130" height="90" as="geometry" />
        </mxCell>
        <mxCell id="MruObNP_5KYlce9daRHS-21" value="" style="endArrow=classic;startArrow=classic;html=1;rounded=0;entryX=0;entryY=1;entryDx=0;entryDy=0;exitX=1;exitY=0;exitDx=0;exitDy=0;" parent="1" source="MruObNP_5KYlce9daRHS-20" target="MruObNP_5KYlce9daRHS-11" edge="1">
          <mxGeometry width="50" height="50" relative="1" as="geometry">
            <mxPoint x="340" y="330" as="sourcePoint" />
            <mxPoint x="390" y="280" as="targetPoint" />
          </mxGeometry>
        </mxCell>
        <mxCell id="MruObNP_5KYlce9daRHS-24" value="Approve" style="ellipse;whiteSpace=wrap;html=1;" parent="1" vertex="1">
          <mxGeometry x="400" y="300" width="90" height="50" as="geometry" />
        </mxCell>
        <mxCell id="MruObNP_5KYlce9daRHS-25" value="Decline" style="ellipse;whiteSpace=wrap;html=1;" parent="1" vertex="1">
          <mxGeometry x="410" y="370" width="90" height="50" as="geometry" />
        </mxCell>
        <mxCell id="MruObNP_5KYlce9daRHS-28" value="Display to Applicant if Approved or Declined&amp;nbsp;" style="ellipse;whiteSpace=wrap;html=1;" parent="1" vertex="1">
          <mxGeometry x="540" y="290" width="90" height="70" as="geometry" />
        </mxCell>
        <mxCell id="MruObNP_5KYlce9daRHS-29" value="Notify To Evaluator" style="ellipse;whiteSpace=wrap;html=1;" parent="1" vertex="1">
          <mxGeometry x="250" y="130" width="120" height="80" as="geometry" />
        </mxCell>
        <mxCell id="MruObNP_5KYlce9daRHS-31" value="" style="endArrow=classic;html=1;rounded=0;entryX=1;entryY=0;entryDx=0;entryDy=0;exitX=0;exitY=0.5;exitDx=0;exitDy=0;" parent="1" source="MruObNP_5KYlce9daRHS-18" target="MruObNP_5KYlce9daRHS-29" edge="1">
          <mxGeometry width="50" height="50" relative="1" as="geometry">
            <mxPoint x="460" y="270" as="sourcePoint" />
            <mxPoint x="510" y="220" as="targetPoint" />
          </mxGeometry>
        </mxCell>
        <mxCell id="MruObNP_5KYlce9daRHS-32" value="" style="endArrow=classic;html=1;rounded=0;exitX=1;exitY=0.3333333333333333;exitDx=0;exitDy=0;exitPerimeter=0;entryX=0;entryY=0.5;entryDx=0;entryDy=0;" parent="1" source="MruObNP_5KYlce9daRHS-2" target="MruObNP_5KYlce9daRHS-29" edge="1">
          <mxGeometry width="50" height="50" relative="1" as="geometry">
            <mxPoint x="180" y="200" as="sourcePoint" />
            <mxPoint x="335" y="265" as="targetPoint" />
          </mxGeometry>
        </mxCell>
        <mxCell id="MruObNP_5KYlce9daRHS-33" value="" style="endArrow=classic;html=1;rounded=0;entryX=1;entryY=0;entryDx=0;entryDy=0;exitX=0.237;exitY=0.071;exitDx=0;exitDy=0;exitPerimeter=0;" parent="1" target="MruObNP_5KYlce9daRHS-24" edge="1" source="MruObNP_5KYlce9daRHS-28">
          <mxGeometry width="50" height="50" relative="1" as="geometry">
            <mxPoint x="550" y="290" as="sourcePoint" />
            <mxPoint x="542.04" y="289.96" as="targetPoint" />
          </mxGeometry>
        </mxCell>
        <mxCell id="MruObNP_5KYlce9daRHS-34" value="" style="endArrow=classic;html=1;rounded=0;exitX=0;exitY=1;exitDx=0;exitDy=0;entryX=1;entryY=0;entryDx=0;entryDy=0;" parent="1" source="MruObNP_5KYlce9daRHS-28" target="MruObNP_5KYlce9daRHS-25" edge="1">
          <mxGeometry width="50" height="50" relative="1" as="geometry">
            <mxPoint x="489.03" y="315" as="sourcePoint" />
            <mxPoint x="553.1801948466052" y="300.25126265847075" as="targetPoint" />
          </mxGeometry>
        </mxCell>
        <mxCell id="MruObNP_5KYlce9daRHS-35" value="" style="endArrow=classic;html=1;rounded=0;entryX=1;entryY=0;entryDx=0;entryDy=0;exitX=0;exitY=0.3333333333333333;exitDx=0;exitDy=0;exitPerimeter=0;" parent="1" source="MruObNP_5KYlce9daRHS-6" target="MruObNP_5KYlce9daRHS-28" edge="1">
          <mxGeometry width="50" height="50" relative="1" as="geometry">
            <mxPoint x="690" y="180" as="sourcePoint" />
            <mxPoint x="525" y="140" as="targetPoint" />
          </mxGeometry>
        </mxCell>
        <mxCell id="MruObNP_5KYlce9daRHS-36" value="&lt;&lt;Extend&gt;&gt;" style="text;align=center;fontStyle=1;verticalAlign=middle;spacingLeft=3;spacingRight=3;strokeColor=none;rotatable=0;points=[[0,0.5],[1,0.5]];portConstraint=eastwest;" parent="1" vertex="1">
          <mxGeometry x="500" y="280" width="50" height="20" as="geometry" />
        </mxCell>
        <mxCell id="MruObNP_5KYlce9daRHS-37" value="&lt;&lt;Include&gt;&gt;" style="text;align=center;fontStyle=1;verticalAlign=middle;spacingLeft=3;spacingRight=3;strokeColor=none;rotatable=0;points=[[0,0.5],[1,0.5]];portConstraint=eastwest;" parent="1" vertex="1">
          <mxGeometry x="275" y="300" width="50" as="geometry" />
        </mxCell>
        <mxCell id="MruObNP_5KYlce9daRHS-38" value="&lt;&lt;Include&gt;&gt;" style="text;align=center;fontStyle=1;verticalAlign=middle;spacingLeft=3;spacingRight=3;strokeColor=none;rotatable=0;points=[[0,0.5],[1,0.5]];portConstraint=eastwest;" parent="1" vertex="1">
          <mxGeometry x="350" y="370" width="50" height="20" as="geometry" />
        </mxCell>
        <mxCell id="MruObNP_5KYlce9daRHS-39" value="&lt;&lt;Extend&gt;&gt;" style="text;align=center;fontStyle=1;verticalAlign=middle;spacingLeft=3;spacingRight=3;strokeColor=none;rotatable=0;points=[[0,0.5],[1,0.5]];portConstraint=eastwest;" parent="1" vertex="1">
          <mxGeometry x="490" y="340" width="50" height="20" as="geometry" />
        </mxCell>
        <mxCell id="MruObNP_5KYlce9daRHS-40" value="&lt;&lt;Include&gt;&gt;" style="text;align=center;fontStyle=1;verticalAlign=middle;spacingLeft=3;spacingRight=3;strokeColor=none;rotatable=0;points=[[0,0.5],[1,0.5]];portConstraint=eastwest;" parent="1" vertex="1">
          <mxGeometry x="345" y="130" width="50" as="geometry" />
        </mxCell>
        <mxCell id="cNs94mUnGL7ysysI8fnC-1" value="" style="endArrow=classic;startArrow=classic;html=1;rounded=0;entryX=0;entryY=0.5;entryDx=0;entryDy=0;exitX=1;exitY=0;exitDx=0;exitDy=0;" edge="1" parent="1" target="MruObNP_5KYlce9daRHS-24">
          <mxGeometry width="50" height="50" relative="1" as="geometry">
            <mxPoint x="340.9619407771256" y="333.18019484660545" as="sourcePoint" />
            <mxPoint x="350.3768939877061" y="289.74873734152925" as="targetPoint" />
          </mxGeometry>
        </mxCell>
        <mxCell id="cNs94mUnGL7ysysI8fnC-2" value="" style="endArrow=classic;startArrow=classic;html=1;rounded=0;entryX=-0.004;entryY=0.568;entryDx=0;entryDy=0;exitX=1;exitY=1;exitDx=0;exitDy=0;entryPerimeter=0;" edge="1" parent="1" source="MruObNP_5KYlce9daRHS-20" target="MruObNP_5KYlce9daRHS-25">
          <mxGeometry width="50" height="50" relative="1" as="geometry">
            <mxPoint x="335.9619407771256" y="388.18019484660545" as="sourcePoint" />
            <mxPoint x="395" y="380" as="targetPoint" />
          </mxGeometry>
        </mxCell>
        <mxCell id="cNs94mUnGL7ysysI8fnC-3" value="&lt;&lt;Include&gt;&gt;" style="text;align=center;fontStyle=1;verticalAlign=middle;spacingLeft=3;spacingRight=3;strokeColor=none;rotatable=0;points=[[0,0.5],[1,0.5]];portConstraint=eastwest;" vertex="1" parent="1">
          <mxGeometry x="350" y="310" width="50" height="20" as="geometry" />
        </mxCell>
      </root>
    </mxGraphModel>
  </diagram>
</mxfile>
